HIERARCHY
ROOT Hips
{
	OFFSET -0.179506 -22.333345 2.821913
	CHANNELS 6 Xposition Yposition Zposition Zrotation Yrotation Xrotation 
	JOINT LeftUpLeg
	{
		OFFSET 6.951974 -9.140623 -0.681533
		CHANNELS 3 Zrotation Yrotation Xrotation
		JOINT LeftLeg
		{
			OFFSET 3.427654 -37.519855 -0.449580
			CHANNELS 3 Zrotation Yrotation Xrotation
			JOINT LeftFoot
			{
				OFFSET -1.359570 -39.796059 -4.369333
				CHANNELS 3 Zrotation Yrotation Xrotation
				JOINT LeftToe
				{
					OFFSET 2.635814 -5.579078 11.928840
					CHANNELS 3 Zrotation Yrotation Xrotation
					End Site
					{
						OFFSET 0.000000 0.000000 0.000000
					}
				}
			}
		}
	}
	JOINT RightUpLeg
	{
		OFFSET -6.767048 -9.052170 -0.431982
		CHANNELS 3 Zrotation Yrotation Xrotation
		JOINT RightLeg
		{
			OFFSET -3.829005 -38.256897 -0.885003
			CHANNELS 3 Zrotation Yrotation Xrotation
			JOINT RightFoot
			{
				OFFSET 1.577377 -39.841461 -4.231180
				CHANNELS 3 Zrotation Yrotation Xrotation
				JOINT RightToe
				{
					OFFSET -2.537174 -4.814398 12.334795
					CHANNELS 3 Zrotation Yrotation Xrotation
					End Site
					{
						OFFSET 0.000000 0.000000 0.000000
					}
				}
			}
		}
	}
	JOINT Spine
	{
		OFFSET -0.253288 10.896323 -2.669631
		CHANNELS 3 Zrotation Yrotation Xrotation
		JOINT Spine1
		{
			OFFSET 0.548704 13.518043 0.109247
			CHANNELS 3 Zrotation Yrotation Xrotation
			JOINT Spine2
			{
				OFFSET 0.145701 5.292222 2.542457
				CHANNELS 3 Zrotation Yrotation Xrotation
				JOINT Neck
				{
					OFFSET -0.277840 21.387037 -4.285703
					CHANNELS 3 Zrotation Yrotation Xrotation
					JOINT Head
					{
						OFFSET 0.515184 6.496960 5.134897
						CHANNELS 3 Zrotation Yrotation Xrotation
						End Site
						{
							OFFSET 0.000000 0.000000 0.000000
						}
					}
				}
				JOINT LeftShoulder
				{
					OFFSET 7.884473 12.174932 -3.408961
					CHANNELS 3 Zrotation Yrotation Xrotation
					JOINT LeftArm
					{
						OFFSET 9.097692 3.046888 -0.886815
						CHANNELS 3 Zrotation Yrotation Xrotation
						JOINT LeftForeArm
						{
							OFFSET 25.961220 -1.277207 -2.745643
							CHANNELS 3 Zrotation Yrotation Xrotation
							JOINT LeftHand
							{
								OFFSET 24.923361 0.898606 -0.117091
								CHANNELS 3 Zrotation Yrotation Xrotation
								End Site
								{
									OFFSET 0.000000 0.000000 0.000000
								}
							}
						}
					}
				}
				JOINT RightShoulder
				{
					OFFSET -8.175920 11.883285 -3.861528
					CHANNELS 3 Zrotation Yrotation Xrotation
					JOINT RightArm
					{
						OFFSET -9.601238 3.255117 -0.914307
						CHANNELS 3 Zrotation Yrotation Xrotation
						JOINT RightForeArm
						{
							OFFSET -25.374195 -1.332924 -2.140099
							CHANNELS 3 Zrotation Yrotation Xrotation
							JOINT RightHand
							{
								OFFSET -25.529810 0.777228 -0.555919
								CHANNELS 3 Zrotation Yrotation Xrotation
								End Site
								{
									OFFSET 0.000000 0.000000 0.000000
								}
							}
						}
					}
				}
			}
		}
	}
}
MOTION
Frames: 7
Frame Time: 0.033333
-102.283592 33.072777 90.663300 160.520361 0.096678 87.988380 13.426027 7.865257 -9.475627 -1.680614 16.456438 17.393590 -1.984049 5.740246 -13.752253 nan nan nan -12.923235 -3.291656 -8.797184 1.006030 -7.782987 25.045711 4.356551 7.520477 -22.070888 nan nan nan -0.534210 -0.342125 5.923117 -0.827614 -0.513171 8.105578 -0.292830 -1.656468 -1.336326 0.063230 14.018899 13.061286 -5.630343 17.472478 21.831014 -20.932464 1.117636 2.458707 -61.926414 -12.291148 0.011539 146.991377 -49.352084 -106.927673 5.193344 -19.562557 -4.903829 13.778416 9.694870 0.135491 71.662645 22.611800 26.209087 -177.268252 66.487444 -152.005791 3.263905 14.399772 -28.619098 
-102.374161 33.103954 90.671104 160.260921 0.164950 87.936014 13.448421 7.910699 -9.399195 -1.596443 16.548829 17.520853 -1.854756 5.801649 -13.872717 nan nan nan -13.067280 -3.170516 -8.881113 1.063882 -7.492300 25.219885 4.480735 7.953997 -22.223197 nan nan nan -0.546664 -0.335463 6.004526 -0.808757 -0.463031 8.116408 -0.295412 -1.513907 -1.344534 0.183423 14.186477 13.043896 -5.760291 17.380405 21.977982 -20.771288 1.005989 2.499641 -61.743143 -12.230701 -0.084899 146.866881 -49.385432 -106.635628 5.287230 -19.436190 -4.886860 13.546866 9.772636 0.281215 71.909401 22.802953 26.145851 -177.352419 66.428995 -151.924963 2.940854 14.491267 -29.497521 
-102.464775 33.130337 90.684090 159.978849 0.204641 87.879856 13.426321 7.982886 -9.292884 -1.503433 16.601459 17.593720 -1.766376 5.867829 -14.006654 nan nan nan -13.186407 -3.069093 -9.010921 1.085886 -7.110106 25.417106 4.642565 8.322525 -22.484000 nan nan nan -0.562611 -0.307707 6.117661 -0.831424 -0.392587 7.973929 -0.326310 -1.355540 -1.232750 0.280535 14.375237 13.078483 -5.743406 17.241095 22.009863 -20.636912 0.847735 2.425120 -61.443330 -12.084127 -0.137972 146.844212 -49.396485 -106.600668 5.513568 -19.181807 -4.744235 13.487971 9.918394 0.358800 71.978507 22.914458 26.096470 -177.444366 66.296006 -152.006071 1.998007 14.261383 -29.506119 
-102.530983 33.137943 90.680054 159.732201 0.232072 87.867766 13.434723 8.047603 -9.249627 -1.450234 16.759708 17.653381 -1.720552 5.933731 -14.078161 nan nan nan -13.320953 -3.017493 -9.171386 1.145183 -6.763039 25.597604 4.605977 8.529946 -22.913984 nan nan nan -0.513336 -0.241340 6.124337 -0.905427 -0.319752 8.027099 -0.384771 -1.309163 -1.228710 0.233441 14.517442 13.094444 -5.623325 17.189946 21.884299 -20.545733 0.712943 2.230349 -61.022943 -11.945560 -0.246144 146.830198 -49.299696 -106.742673 5.508841 -18.963388 -4.563664 13.526349 10.094230 0.333560 72.035312 23.038880 26.136478 -177.438304 66.072250 -152.171693 1.607420 13.923383 -29.238893 
-102.590614 33.138912 90.671745 159.501056 0.227574 87.855969 13.419548 8.081553 -9.221514 -1.376907 17.037897 17.727537 -1.725146 5.905788 -14.130498 nan nan nan -13.453599 -2.944755 -9.266793 1.066567 -6.638904 25.651325 4.390408 8.448499 -23.394915 nan nan nan -0.495535 -0.167857 6.103241 -0.964824 -0.237478 8.242009 -0.428526 -1.308864 -1.329579 0.142817 14.644803 13.117181 -5.623983 17.272864 21.600904 -20.464226 0.607428 2.052011 -60.678127 -11.953321 -0.353870 146.667192 -49.129211 -106.691065 5.228798 -19.115762 -4.248474 13.546213 10.309629 0.260235 72.094545 23.159405 26.257233 -177.130157 65.792662 -151.923083 2.081071 13.859963 -29.077049 
-102.640335 33.149395 90.664619 159.245066 0.182908 87.881025 13.359430 8.018744 -9.215592 -1.308397 17.255969 17.809639 -1.733933 5.955670 -14.199160 nan nan nan -13.551607 -2.839719 -9.330197 0.839053 -6.609848 25.524468 4.035975 7.961551 -23.806643 nan nan nan -0.609824 -0.015611 5.973853 -0.957845 -0.117984 8.505257 -0.423914 -1.292903 -1.428031 0.122595 14.736090 13.195264 -5.693103 17.317354 21.323995 -20.373221 0.428294 2.055285 -60.392245 -12.075417 -0.435831 146.528018 -48.945487 -106.527943 5.162148 -19.430670 -4.373997 13.566584 10.482125 0.185581 72.037474 23.281188 26.374785 -176.720189 65.446389 -151.388935 2.278928 13.841772 -29.221534 
-102.672897 33.170124 90.652222 159.020656 0.125801 87.891017 13.284776 7.942749 -9.205454 -1.239135 17.375381 17.924076 -1.718826 6.098942 -14.304529 nan nan nan -13.653843 -2.850022 -9.342377 0.523221 -6.715937 25.348939 3.615039 7.284830 -24.084222 nan nan nan -0.673847 0.110942 5.858662 -1.013460 -0.037982 8.625853 -0.449063 -1.224255 -1.439164 -0.003957 14.718352 13.333363 -5.717290 17.279938 21.080337 -20.198367 0.265211 2.150492 -60.066092 -12.203191 -0.597668 146.556848 -48.775683 -106.626561 5.231817 -19.567172 -4.994249 13.471844 10.635001 0.178959 72.102624 23.472623 26.487428 -176.444149 65.178968 -150.977231 1.807933 13.847720 -29.318779 
